<?xml version="1.0" encoding="UTF-8"?>
<svg id="Layer_2" data-name="Layer 2" xmlns="http://www.w3.org/2000/svg" viewBox="0 0 1650.22 2000">
  <defs>
    <style>
      .cls-1 {
        fill: #fff;
      }
    </style>
  </defs>
  <path class="cls-1" d="M1434.96,1000c130.94-102.46,215.26-261.9,215.26-440.67C1650.22,250.91,1399.3,0,1090.89,0H0v2000h1090.89c308.41,0,559.32-250.91,559.32-559.33,0-178.77-84.31-338.21-215.26-440.68ZM1412.92,559.32c0,177.57-144.46,322.03-322.03,322.03s-322.03-144.46-322.03-322.03,144.46-322.03,322.03-322.03,322.03,144.46,322.03,322.03ZM237.3,237.3h396.53c-64.38,91.11-102.26,202.23-102.26,322.03v1203.38H237.3V237.3ZM1090.89,1762.7h-322.03v-746.32c91.11,64.38,202.23,102.26,322.03,102.26,177.57,0,322.03,144.46,322.03,322.03s-144.46,322.03-322.03,322.03Z"/>
</svg>